<svg xmlns="http://www.w3.org/2000/svg" xmlns:xlink="http://www.w3.org/1999/xlink" width="500" zoomAndPan="magnify" viewBox="0 0 375 187.499995" height="250" preserveAspectRatio="xMidYMid meet" version="1.0"><defs><g/><clipPath id="3eb1de4918"><path d="M 35.777344 2 L 70 2 L 70 166 L 35.777344 166 Z M 35.777344 2 " clip-rule="nonzero"/></clipPath><clipPath id="9d61a5a9ab"><path d="M 37 2 L 79.777344 2 L 79.777344 55 L 37 55 Z M 37 2 " clip-rule="nonzero"/></clipPath></defs><path fill="#ed0606" d="M 40.058594 6.058594 L 38.855469 39.417969 L 66.273438 39.417969 L 66.261719 5.347656 L 40.058594 6.058594 " fill-opacity="1" fill-rule="nonzero"/><path fill="#ffcc00" d="M 38.855469 162.300781 L 66.273438 162.300781 L 66.273438 39.417969 L 38.855469 39.417969 Z M 38.855469 162.300781 " fill-opacity="1" fill-rule="nonzero"/><g clip-path="url(#3eb1de4918)"><path fill="#467ac6" d="M 43.089844 9.136719 L 41.984375 39.53125 L 43.199219 156.894531 C 43.210938 158.144531 44.238281 159.15625 45.476562 159.15625 L 61.636719 159.15625 C 61.78125 159.15625 61.914062 159.035156 61.914062 158.878906 L 63.140625 39.464844 L 62.027344 8.722656 Z M 61.636719 165.433594 L 45.476562 165.433594 C 40.804688 165.433594 36.96875 161.632812 36.914062 156.960938 L 35.722656 39.453125 L 37.027344 2.996094 L 68.078125 2.316406 L 69.414062 39.453125 L 68.191406 158.945312 C 68.15625 162.523438 65.214844 165.433594 61.636719 165.433594 " fill-opacity="1" fill-rule="nonzero"/></g><path fill="#467ac6" d="M 57.710938 173.601562 L 47.425781 173.601562 C 44.726562 173.601562 42.308594 171.898438 41.40625 169.355469 L 38.542969 161.351562 C 38.164062 160.273438 38.320312 159.066406 38.976562 158.132812 C 39.632812 157.207031 40.714844 156.648438 41.851562 156.648438 L 41.851562 162.925781 C 42.742188 162.925781 43.589844 162.488281 44.105469 161.753906 C 44.628906 161.03125 44.75 160.082031 44.460938 159.234375 L 47.3125 167.25 L 57.710938 167.316406 L 60.675781 159.234375 C 60.375 160.082031 60.511719 161.03125 61.023438 161.753906 C 61.535156 162.488281 62.382812 162.925781 63.273438 162.925781 L 63.273438 156.648438 C 64.421875 156.648438 65.492188 157.207031 66.148438 158.132812 C 66.808594 159.066406 66.976562 160.273438 66.597656 161.339844 L 63.71875 169.355469 C 62.816406 171.898438 60.398438 173.601562 57.710938 173.601562 " fill-opacity="1" fill-rule="nonzero"/><path fill="#467ac6" d="M 55.707031 169.621094 L 52.5625 185.105469 L 49.429688 169.621094 Z M 55.707031 169.621094 " fill-opacity="1" fill-rule="nonzero"/><g clip-path="url(#9d61a5a9ab)"><path fill="#467ac6" d="M 79.769531 54.476562 L 73.496094 54.476562 L 73.496094 8.523438 L 37.117188 8.878906 L 37.046875 2.605469 L 79.769531 2.179688 L 79.769531 54.476562 " fill-opacity="1" fill-rule="nonzero"/></g><path fill="#467ac6" d="M 66.261719 43.230469 L 38.339844 43.230469 L 38.339844 36.957031 L 66.261719 36.957031 L 66.261719 43.230469 " fill-opacity="1" fill-rule="nonzero"/><g fill="#000000" fill-opacity="1"><g transform="translate(89.613897, 108.432254)"><g><path d="M 21.359375 0 L 4.03125 0 C 3.457031 0 3.171875 -0.285156 3.171875 -0.859375 L 3.171875 -31.171875 C 3.171875 -31.742188 3.457031 -32.03125 4.03125 -32.03125 L 10.84375 -32.03125 C 11.414062 -32.03125 11.703125 -31.742188 11.703125 -31.171875 L 11.703125 -7.25 L 21.359375 -7.25 C 21.921875 -7.25 22.203125 -6.96875 22.203125 -6.40625 L 22.203125 -0.859375 C 22.203125 -0.285156 21.921875 0 21.359375 0 Z M 21.359375 0 "/></g></g></g><g fill="#000000" fill-opacity="1"><g transform="translate(112.71959, 108.432254)"><g/></g></g><g fill="#000000" fill-opacity="1"><g transform="translate(126.378647, 108.432254)"><g><path d="M 17.640625 -32.03125 L 32.3125 -1.015625 C 32.457031 -0.710938 32.46875 -0.46875 32.34375 -0.28125 C 32.226562 -0.09375 32.007812 0 31.6875 0 L 24.171875 0 C 23.691406 0 23.363281 -0.226562 23.1875 -0.6875 L 22.140625 -3.375 L 10.828125 -3.375 L 9.78125 -0.6875 C 9.601562 -0.226562 9.273438 0 8.796875 0 L 1.265625 0 C 0.960938 0 0.75 -0.09375 0.625 -0.28125 C 0.5 -0.46875 0.503906 -0.710938 0.640625 -1.015625 L 15.328125 -32.03125 C 15.648438 -32.675781 16.035156 -33 16.484375 -33 C 16.929688 -33 17.316406 -32.675781 17.640625 -32.03125 Z M 16.5 -17.828125 L 13.328125 -9.78125 L 19.640625 -9.78125 Z M 16.5 -17.828125 "/></g></g></g><g fill="#000000" fill-opacity="1"><g transform="translate(159.389764, 108.432254)"><g/></g></g><g fill="#000000" fill-opacity="1"><g transform="translate(173.048821, 108.432254)"><g><path d="M 10.890625 0 L 4.03125 0 C 3.457031 0 3.171875 -0.285156 3.171875 -0.859375 L 3.171875 -31.171875 C 3.171875 -31.742188 3.457031 -32.03125 4.03125 -32.03125 L 17.328125 -32.03125 C 19.128906 -32.03125 20.679688 -31.847656 21.984375 -31.484375 C 23.296875 -31.117188 24.390625 -30.617188 25.265625 -29.984375 C 26.140625 -29.347656 26.835938 -28.59375 27.359375 -27.71875 C 27.890625 -26.851562 28.265625 -25.910156 28.484375 -24.890625 C 28.703125 -23.878906 28.8125 -22.828125 28.8125 -21.734375 C 28.8125 -19.515625 28.414062 -17.59375 27.625 -15.96875 C 26.84375 -14.351562 25.722656 -13.109375 24.265625 -12.234375 C 22.804688 -11.359375 21.0625 -10.921875 19.03125 -10.921875 L 11.734375 -10.921875 L 11.734375 -0.859375 C 11.734375 -0.285156 11.453125 0 10.890625 0 Z M 11.734375 -24.765625 L 11.734375 -18.1875 L 15.84375 -18.1875 C 16.082031 -18.1875 16.382812 -18.195312 16.75 -18.21875 C 17.125 -18.238281 17.515625 -18.300781 17.921875 -18.40625 C 18.328125 -18.507812 18.707031 -18.679688 19.0625 -18.921875 C 19.414062 -19.160156 19.707031 -19.5 19.9375 -19.9375 C 20.164062 -20.375 20.28125 -20.941406 20.28125 -21.640625 C 20.28125 -22.421875 20.128906 -23.023438 19.828125 -23.453125 C 19.535156 -23.890625 19.160156 -24.203125 18.703125 -24.390625 C 18.242188 -24.578125 17.757812 -24.6875 17.25 -24.71875 C 16.75 -24.75 16.28125 -24.765625 15.84375 -24.765625 Z M 11.734375 -24.765625 "/></g></g></g><g fill="#000000" fill-opacity="1"><g transform="translate(203.411536, 108.432254)"><g/></g></g><g fill="#000000" fill-opacity="1"><g transform="translate(217.070593, 108.432254)"><g><path d="M 15.890625 0 L 9 0 C 8.4375 0 8.15625 -0.285156 8.15625 -0.859375 L 8.15625 -24.765625 L 1.703125 -24.765625 C 1.140625 -24.765625 0.859375 -25.050781 0.859375 -25.625 L 0.859375 -31.171875 C 0.859375 -31.742188 1.140625 -32.03125 1.703125 -32.03125 L 23.1875 -32.03125 C 23.757812 -32.03125 24.046875 -31.742188 24.046875 -31.171875 L 24.046875 -25.625 C 24.046875 -25.050781 23.757812 -24.765625 23.1875 -24.765625 L 16.75 -24.765625 L 16.75 -0.859375 C 16.75 -0.285156 16.460938 0 15.890625 0 Z M 15.890625 0 "/></g></g></g><g fill="#000000" fill-opacity="1"><g transform="translate(242.011394, 108.432254)"><g/></g></g><g fill="#000000" fill-opacity="1"><g transform="translate(255.670451, 108.432254)"><g><path d="M 19.21875 0.859375 C 16.625 0.859375 14.257812 0.46875 12.125 -0.3125 C 9.988281 -1.101562 8.160156 -2.234375 6.640625 -3.703125 C 5.117188 -5.179688 3.941406 -6.957031 3.109375 -9.03125 C 2.285156 -11.113281 1.875 -13.441406 1.875 -16.015625 C 1.875 -18.585938 2.285156 -20.910156 3.109375 -22.984375 C 3.941406 -25.066406 5.117188 -26.84375 6.640625 -28.3125 C 8.160156 -29.789062 9.988281 -30.921875 12.125 -31.703125 C 14.257812 -32.484375 16.625 -32.875 19.21875 -32.875 C 21.832031 -32.875 24.207031 -32.484375 26.34375 -31.703125 C 28.476562 -30.921875 30.3125 -29.789062 31.84375 -28.3125 C 33.382812 -26.84375 34.566406 -25.066406 35.390625 -22.984375 C 36.222656 -20.910156 36.640625 -18.585938 36.640625 -16.015625 C 36.640625 -13.441406 36.222656 -11.113281 35.390625 -9.03125 C 34.566406 -6.957031 33.382812 -5.179688 31.84375 -3.703125 C 30.3125 -2.234375 28.476562 -1.101562 26.34375 -0.3125 C 24.207031 0.46875 21.832031 0.859375 19.21875 0.859375 Z M 19.21875 -6.84375 C 21 -6.84375 22.554688 -7.210938 23.890625 -7.953125 C 25.222656 -8.691406 26.257812 -9.742188 27 -11.109375 C 27.738281 -12.484375 28.109375 -14.117188 28.109375 -16.015625 C 28.109375 -17.898438 27.738281 -19.523438 27 -20.890625 C 26.257812 -22.265625 25.222656 -23.320312 23.890625 -24.0625 C 22.554688 -24.8125 21 -25.1875 19.21875 -25.1875 C 17.457031 -25.1875 15.914062 -24.8125 14.59375 -24.0625 C 13.269531 -23.320312 12.242188 -22.265625 11.515625 -20.890625 C 10.785156 -19.523438 10.421875 -17.898438 10.421875 -16.015625 C 10.421875 -14.117188 10.785156 -12.484375 11.515625 -11.109375 C 12.242188 -9.742188 13.269531 -8.691406 14.59375 -7.953125 C 15.914062 -7.210938 17.457031 -6.84375 19.21875 -6.84375 Z M 19.21875 -6.84375 "/></g></g></g><g fill="#000000" fill-opacity="1"><g transform="translate(294.228591, 108.432254)"><g/></g></g><g fill="#000000" fill-opacity="1"><g transform="translate(307.887659, 108.432254)"><g><path d="M 10.890625 0 L 4.03125 0 C 3.457031 0 3.171875 -0.285156 3.171875 -0.859375 L 3.171875 -31.171875 C 3.171875 -31.742188 3.457031 -32.03125 4.03125 -32.03125 L 17.328125 -32.03125 C 19.128906 -32.03125 20.679688 -31.847656 21.984375 -31.484375 C 23.296875 -31.117188 24.390625 -30.617188 25.265625 -29.984375 C 26.140625 -29.347656 26.835938 -28.59375 27.359375 -27.71875 C 27.890625 -26.851562 28.265625 -25.910156 28.484375 -24.890625 C 28.703125 -23.878906 28.8125 -22.828125 28.8125 -21.734375 C 28.8125 -19.515625 28.414062 -17.59375 27.625 -15.96875 C 26.84375 -14.351562 25.722656 -13.109375 24.265625 -12.234375 C 22.804688 -11.359375 21.0625 -10.921875 19.03125 -10.921875 L 11.734375 -10.921875 L 11.734375 -0.859375 C 11.734375 -0.285156 11.453125 0 10.890625 0 Z M 11.734375 -24.765625 L 11.734375 -18.1875 L 15.84375 -18.1875 C 16.082031 -18.1875 16.382812 -18.195312 16.75 -18.21875 C 17.125 -18.238281 17.515625 -18.300781 17.921875 -18.40625 C 18.328125 -18.507812 18.707031 -18.679688 19.0625 -18.921875 C 19.414062 -19.160156 19.707031 -19.5 19.9375 -19.9375 C 20.164062 -20.375 20.28125 -20.941406 20.28125 -21.640625 C 20.28125 -22.421875 20.128906 -23.023438 19.828125 -23.453125 C 19.535156 -23.890625 19.160156 -24.203125 18.703125 -24.390625 C 18.242188 -24.578125 17.757812 -24.6875 17.25 -24.71875 C 16.75 -24.75 16.28125 -24.765625 15.84375 -24.765625 Z M 11.734375 -24.765625 "/></g></g></g><g fill="#000000" fill-opacity="1"><g transform="translate(92.844031, 137.583783)"><g><path d="M 8 0.28125 C 6.769531 0.28125 5.695312 0.0703125 4.78125 -0.34375 C 3.875 -0.769531 3.125 -1.335938 2.53125 -2.046875 C 1.9375 -2.765625 1.492188 -3.585938 1.203125 -4.515625 C 0.910156 -5.453125 0.765625 -6.4375 0.765625 -7.46875 C 0.765625 -8.5 0.910156 -9.476562 1.203125 -10.40625 C 1.492188 -11.34375 1.9375 -12.164062 2.53125 -12.875 C 3.125 -13.59375 3.875 -14.15625 4.78125 -14.5625 C 5.695312 -14.976562 6.769531 -15.1875 8 -15.1875 C 9.238281 -15.1875 10.3125 -14.976562 11.21875 -14.5625 C 12.132812 -14.15625 12.882812 -13.59375 13.46875 -12.875 C 14.0625 -12.164062 14.503906 -11.34375 14.796875 -10.40625 C 15.097656 -9.476562 15.25 -8.5 15.25 -7.46875 C 15.25 -6.4375 15.097656 -5.453125 14.796875 -4.515625 C 14.503906 -3.585938 14.0625 -2.765625 13.46875 -2.046875 C 12.882812 -1.335938 12.132812 -0.769531 11.21875 -0.34375 C 10.3125 0.0703125 9.238281 0.28125 8 0.28125 Z M 8 -2.25 C 8.914062 -2.25 9.691406 -2.46875 10.328125 -2.90625 C 10.972656 -3.34375 11.460938 -3.953125 11.796875 -4.734375 C 12.140625 -5.523438 12.3125 -6.4375 12.3125 -7.46875 C 12.3125 -8.5 12.140625 -9.398438 11.796875 -10.171875 C 11.460938 -10.953125 10.972656 -11.554688 10.328125 -11.984375 C 9.691406 -12.421875 8.914062 -12.640625 8 -12.640625 C 7.09375 -12.640625 6.316406 -12.421875 5.671875 -11.984375 C 5.023438 -11.554688 4.53125 -10.953125 4.1875 -10.171875 C 3.851562 -9.398438 3.6875 -8.5 3.6875 -7.46875 C 3.6875 -6.4375 3.851562 -5.523438 4.1875 -4.734375 C 4.53125 -3.953125 5.023438 -3.34375 5.671875 -2.90625 C 6.316406 -2.46875 7.09375 -2.25 8 -2.25 Z M 8 -2.25 "/></g></g></g><g fill="#000000" fill-opacity="1"><g transform="translate(110.82727, 137.583783)"><g><path d="M 3.828125 0 L 1.1875 0 L 1.1875 -10.96875 L 3.828125 -10.96875 L 3.828125 -9.578125 C 4.273438 -10.191406 4.738281 -10.613281 5.21875 -10.84375 C 5.695312 -11.082031 6.234375 -11.203125 6.828125 -11.203125 C 7.828125 -11.203125 8.582031 -11.019531 9.09375 -10.65625 C 9.613281 -10.300781 10 -9.867188 10.25 -9.359375 C 10.46875 -8.878906 10.59375 -8.390625 10.625 -7.890625 C 10.664062 -7.390625 10.6875 -6.863281 10.6875 -6.3125 L 10.6875 0 L 8.078125 0 L 8.078125 -6.359375 C 8.078125 -6.910156 8.03125 -7.359375 7.9375 -7.703125 C 7.84375 -8.054688 7.707031 -8.335938 7.53125 -8.546875 C 7.21875 -8.867188 6.753906 -9.03125 6.140625 -9.03125 C 5.398438 -9.03125 4.84375 -8.804688 4.46875 -8.359375 C 4.25 -8.097656 4.085938 -7.753906 3.984375 -7.328125 C 3.878906 -6.898438 3.828125 -6.320312 3.828125 -5.59375 Z M 3.828125 0 "/></g></g></g><g fill="#000000" fill-opacity="1"><g transform="translate(124.608043, 137.583783)"><g><path d="M 5.390625 0 L 3.6875 0 C 2.882812 0 2.257812 -0.1875 1.8125 -0.5625 C 1.375 -0.945312 1.15625 -1.5625 1.15625 -2.40625 L 1.15625 -14.921875 L 3.796875 -14.921875 L 3.796875 -3.1875 C 3.796875 -2.820312 3.863281 -2.5625 4 -2.40625 C 4.132812 -2.257812 4.363281 -2.1875 4.6875 -2.1875 L 5.390625 -2.1875 Z M 5.390625 0 "/></g></g></g><g fill="#000000" fill-opacity="1"><g transform="translate(132.466267, 137.583783)"><g><path d="M 2.515625 -12.171875 C 2.078125 -12.171875 1.695312 -12.304688 1.375 -12.578125 C 1.0625 -12.859375 0.90625 -13.226562 0.90625 -13.6875 C 0.90625 -14.125 1.0625 -14.484375 1.375 -14.765625 C 1.695312 -15.046875 2.078125 -15.1875 2.515625 -15.1875 C 2.960938 -15.1875 3.34375 -15.046875 3.65625 -14.765625 C 3.976562 -14.484375 4.140625 -14.125 4.140625 -13.6875 C 4.140625 -13.226562 3.976562 -12.859375 3.65625 -12.578125 C 3.34375 -12.304688 2.960938 -12.171875 2.515625 -12.171875 Z M 3.828125 0 L 1.1875 0 L 1.1875 -10.96875 L 3.828125 -10.96875 Z M 3.828125 0 "/></g></g></g><g fill="#000000" fill-opacity="1"><g transform="translate(139.464447, 137.583783)"><g><path d="M 3.828125 0 L 1.1875 0 L 1.1875 -10.96875 L 3.828125 -10.96875 L 3.828125 -9.578125 C 4.273438 -10.191406 4.738281 -10.613281 5.21875 -10.84375 C 5.695312 -11.082031 6.234375 -11.203125 6.828125 -11.203125 C 7.828125 -11.203125 8.582031 -11.019531 9.09375 -10.65625 C 9.613281 -10.300781 10 -9.867188 10.25 -9.359375 C 10.46875 -8.878906 10.59375 -8.390625 10.625 -7.890625 C 10.664062 -7.390625 10.6875 -6.863281 10.6875 -6.3125 L 10.6875 0 L 8.078125 0 L 8.078125 -6.359375 C 8.078125 -6.910156 8.03125 -7.359375 7.9375 -7.703125 C 7.84375 -8.054688 7.707031 -8.335938 7.53125 -8.546875 C 7.21875 -8.867188 6.753906 -9.03125 6.140625 -9.03125 C 5.398438 -9.03125 4.84375 -8.804688 4.46875 -8.359375 C 4.25 -8.097656 4.085938 -7.753906 3.984375 -7.328125 C 3.878906 -6.898438 3.828125 -6.320312 3.828125 -5.59375 Z M 3.828125 0 "/></g></g></g><g fill="#000000" fill-opacity="1"><g transform="translate(153.245222, 137.583783)"><g><path d="M 6.328125 0.21875 C 5.210938 0.21875 4.234375 -0.0234375 3.390625 -0.515625 C 2.546875 -1.003906 1.894531 -1.671875 1.4375 -2.515625 C 0.976562 -3.367188 0.75 -4.335938 0.75 -5.421875 C 0.75 -6.128906 0.859375 -6.828125 1.078125 -7.515625 C 1.296875 -8.210938 1.632812 -8.835938 2.09375 -9.390625 C 2.550781 -9.941406 3.125 -10.378906 3.8125 -10.703125 C 4.5 -11.035156 5.3125 -11.203125 6.25 -11.203125 C 6.957031 -11.203125 7.640625 -11.085938 8.296875 -10.859375 C 8.953125 -10.640625 9.539062 -10.296875 10.0625 -9.828125 C 10.582031 -9.367188 10.992188 -8.78125 11.296875 -8.0625 C 11.609375 -7.351562 11.765625 -6.503906 11.765625 -5.515625 L 11.765625 -4.953125 L 3.484375 -4.953125 C 3.503906 -4.710938 3.550781 -4.476562 3.625 -4.25 C 3.707031 -4.019531 3.796875 -3.820312 3.890625 -3.65625 C 4.148438 -3.144531 4.5 -2.75 4.9375 -2.46875 C 5.375 -2.1875 5.875 -2.046875 6.4375 -2.046875 C 7.0625 -2.046875 7.582031 -2.207031 8 -2.53125 C 8.425781 -2.863281 8.722656 -3.25 8.890625 -3.6875 L 11.59375 -3.6875 C 11.382812 -2.988281 11.050781 -2.34375 10.59375 -1.75 C 10.132812 -1.15625 9.550781 -0.675781 8.84375 -0.3125 C 8.144531 0.0390625 7.304688 0.21875 6.328125 0.21875 Z M 3.59375 -6.921875 L 9.0625 -6.921875 C 9.050781 -7.066406 9.015625 -7.226562 8.953125 -7.40625 C 8.898438 -7.59375 8.800781 -7.769531 8.65625 -7.9375 C 8.40625 -8.320312 8.078125 -8.613281 7.671875 -8.8125 C 7.265625 -9.007812 6.816406 -9.109375 6.328125 -9.109375 C 5.847656 -9.109375 5.410156 -9.007812 5.015625 -8.8125 C 4.617188 -8.613281 4.289062 -8.320312 4.03125 -7.9375 C 3.882812 -7.769531 3.78125 -7.59375 3.71875 -7.40625 C 3.664062 -7.226562 3.625 -7.066406 3.59375 -6.921875 Z M 3.59375 -6.921875 "/></g></g></g><g fill="#000000" fill-opacity="1"><g transform="translate(167.710116, 137.583783)"><g/></g></g><g fill="#000000" fill-opacity="1"><g transform="translate(174.903762, 137.583783)"><g><path d="M 4.140625 0 L 1.328125 0 L 1.328125 -14.921875 L 7.765625 -14.921875 C 8.703125 -14.921875 9.523438 -14.765625 10.234375 -14.453125 C 10.941406 -14.148438 11.492188 -13.675781 11.890625 -13.03125 C 12.285156 -12.382812 12.484375 -11.546875 12.484375 -10.515625 C 12.484375 -9.566406 12.285156 -8.75 11.890625 -8.0625 C 11.492188 -7.375 10.941406 -6.851562 10.234375 -6.5 C 9.523438 -6.144531 8.703125 -5.96875 7.765625 -5.96875 L 4.140625 -5.96875 Z M 4.140625 -12.390625 L 4.140625 -8.421875 L 7.375 -8.421875 C 8.125 -8.421875 8.695312 -8.585938 9.09375 -8.921875 C 9.488281 -9.265625 9.6875 -9.765625 9.6875 -10.421875 C 9.6875 -11.054688 9.484375 -11.539062 9.078125 -11.875 C 8.679688 -12.21875 8.113281 -12.390625 7.375 -12.390625 Z M 4.140625 -12.390625 "/></g></g></g><g fill="#000000" fill-opacity="1"><g transform="translate(189.876862, 137.583783)"><g><path d="M 5.390625 0 L 3.6875 0 C 2.882812 0 2.257812 -0.1875 1.8125 -0.5625 C 1.375 -0.945312 1.15625 -1.5625 1.15625 -2.40625 L 1.15625 -14.921875 L 3.796875 -14.921875 L 3.796875 -3.1875 C 3.796875 -2.820312 3.863281 -2.5625 4 -2.40625 C 4.132812 -2.257812 4.363281 -2.1875 4.6875 -2.1875 L 5.390625 -2.1875 Z M 5.390625 0 "/></g></g></g><g fill="#000000" fill-opacity="1"><g transform="translate(197.735083, 137.583783)"><g><path d="M 4.359375 0.21875 C 3.328125 0.21875 2.46875 -0.0546875 1.78125 -0.609375 C 1.101562 -1.171875 0.765625 -1.972656 0.765625 -3.015625 C 0.765625 -3.597656 0.878906 -4.09375 1.109375 -4.5 C 1.335938 -4.914062 1.640625 -5.253906 2.015625 -5.515625 C 2.367188 -5.765625 2.769531 -5.957031 3.21875 -6.09375 C 3.664062 -6.238281 4.117188 -6.359375 4.578125 -6.453125 L 7.84375 -7.0625 C 7.8125 -7.738281 7.632812 -8.25 7.3125 -8.59375 C 6.988281 -8.945312 6.5 -9.125 5.84375 -9.125 C 5.351562 -9.125 4.914062 -8.976562 4.53125 -8.6875 C 4.144531 -8.394531 3.898438 -7.988281 3.796875 -7.46875 L 1.171875 -7.46875 C 1.304688 -8.320312 1.609375 -9.023438 2.078125 -9.578125 C 2.546875 -10.128906 3.113281 -10.535156 3.78125 -10.796875 C 4.445312 -11.066406 5.140625 -11.203125 5.859375 -11.203125 C 6.503906 -11.203125 7.117188 -11.109375 7.703125 -10.921875 C 8.285156 -10.742188 8.78125 -10.46875 9.1875 -10.09375 C 9.613281 -9.707031 9.914062 -9.269531 10.09375 -8.78125 C 10.28125 -8.289062 10.390625 -7.78125 10.421875 -7.25 C 10.460938 -6.726562 10.484375 -6.210938 10.484375 -5.703125 L 10.484375 0 L 7.84375 0 L 7.84375 -1.484375 C 7.5625 -1.003906 7.226562 -0.640625 6.84375 -0.390625 C 6.5 -0.171875 6.113281 -0.015625 5.6875 0.078125 C 5.269531 0.171875 4.828125 0.21875 4.359375 0.21875 Z M 5 -1.859375 C 5.519531 -1.859375 5.988281 -1.960938 6.40625 -2.171875 C 6.976562 -2.453125 7.363281 -2.832031 7.5625 -3.3125 C 7.769531 -3.800781 7.878906 -4.40625 7.890625 -5.125 L 5.28125 -4.59375 C 4.894531 -4.53125 4.582031 -4.445312 4.34375 -4.34375 C 4.101562 -4.238281 3.90625 -4.113281 3.75 -3.96875 C 3.644531 -3.863281 3.5625 -3.738281 3.5 -3.59375 C 3.4375 -3.445312 3.40625 -3.285156 3.40625 -3.109375 C 3.40625 -2.703125 3.554688 -2.390625 3.859375 -2.171875 C 4.160156 -1.960938 4.539062 -1.859375 5 -1.859375 Z M 5 -1.859375 "/></g></g></g><g fill="#000000" fill-opacity="1"><g transform="translate(211.242209, 137.583783)"><g><path d="M 6.796875 0 L 4.625 0 C 3.820312 0 3.195312 -0.1875 2.75 -0.5625 C 2.300781 -0.945312 2.078125 -1.5625 2.078125 -2.40625 L 2.078125 -8.859375 L 0.453125 -8.859375 L 0.453125 -10.96875 L 2.078125 -10.96875 L 2.078125 -14.921875 L 4.703125 -14.921875 L 4.703125 -10.96875 L 6.828125 -10.96875 L 6.828125 -8.859375 L 4.703125 -8.859375 L 4.703125 -3.203125 C 4.703125 -2.921875 4.75 -2.679688 4.84375 -2.484375 C 4.945312 -2.285156 5.203125 -2.1875 5.609375 -2.1875 L 6.796875 -2.1875 Z M 6.796875 0 "/></g></g></g><g fill="#000000" fill-opacity="1"><g transform="translate(220.683682, 137.583783)"><g><path d="M 4.765625 0 L 2.109375 0 L 2.109375 -8.859375 L 0.453125 -8.859375 L 0.453125 -10.96875 L 2.109375 -10.96875 L 2.109375 -12.078125 C 2.109375 -12.992188 2.363281 -13.695312 2.875 -14.1875 C 3.394531 -14.675781 4.148438 -14.921875 5.140625 -14.921875 L 6.78125 -14.921875 L 6.78125 -12.828125 L 5.765625 -12.828125 C 5.484375 -12.828125 5.242188 -12.742188 5.046875 -12.578125 C 4.859375 -12.410156 4.765625 -12.117188 4.765625 -11.703125 L 4.765625 -10.96875 L 6.78125 -10.96875 L 6.78125 -8.859375 L 4.765625 -8.859375 Z M 4.765625 0 "/></g></g></g><g fill="#000000" fill-opacity="1"><g transform="translate(229.831967, 137.583783)"><g><path d="M 6.359375 0.21875 C 5.253906 0.21875 4.28125 -0.0195312 3.4375 -0.5 C 2.59375 -0.988281 1.929688 -1.664062 1.453125 -2.53125 C 0.984375 -3.394531 0.75 -4.398438 0.75 -5.546875 C 0.75 -6.660156 0.984375 -7.640625 1.453125 -8.484375 C 1.929688 -9.328125 2.585938 -9.988281 3.421875 -10.46875 C 4.265625 -10.957031 5.242188 -11.203125 6.359375 -11.203125 C 7.460938 -11.203125 8.4375 -10.957031 9.28125 -10.46875 C 10.132812 -9.988281 10.796875 -9.328125 11.265625 -8.484375 C 11.742188 -7.640625 11.984375 -6.660156 11.984375 -5.546875 C 11.984375 -4.410156 11.75 -3.410156 11.28125 -2.546875 C 10.8125 -1.679688 10.148438 -1.003906 9.296875 -0.515625 C 8.453125 -0.0234375 7.472656 0.21875 6.359375 0.21875 Z M 6.359375 -2.046875 C 7.210938 -2.046875 7.90625 -2.367188 8.4375 -3.015625 C 8.976562 -3.671875 9.25 -4.515625 9.25 -5.546875 C 9.25 -6.203125 9.125 -6.78125 8.875 -7.28125 C 8.632812 -7.789062 8.300781 -8.191406 7.875 -8.484375 C 7.445312 -8.785156 6.941406 -8.9375 6.359375 -8.9375 C 5.796875 -8.9375 5.289062 -8.789062 4.84375 -8.5 C 4.40625 -8.21875 4.0625 -7.820312 3.8125 -7.3125 C 3.5625 -6.800781 3.4375 -6.210938 3.4375 -5.546875 C 3.4375 -4.503906 3.707031 -3.660156 4.25 -3.015625 C 4.800781 -2.367188 5.503906 -2.046875 6.359375 -2.046875 Z M 6.359375 -2.046875 "/></g></g></g><g fill="#000000" fill-opacity="1"><g transform="translate(244.531419, 137.583783)"><g><path d="M 3.828125 0 L 1.1875 0 L 1.1875 -10.96875 L 3.828125 -10.96875 L 3.828125 -9.65625 C 4.242188 -10.226562 4.707031 -10.628906 5.21875 -10.859375 C 5.738281 -11.085938 6.316406 -11.203125 6.953125 -11.203125 L 7.265625 -11.203125 L 7.265625 -8.65625 L 6.671875 -8.65625 C 6.222656 -8.65625 5.835938 -8.597656 5.515625 -8.484375 C 5.203125 -8.367188 4.929688 -8.207031 4.703125 -8 C 4.421875 -7.707031 4.203125 -7.328125 4.046875 -6.859375 C 3.898438 -6.398438 3.828125 -5.804688 3.828125 -5.078125 Z M 3.828125 0 "/></g></g></g><g fill="#000000" fill-opacity="1"><g transform="translate(254.129268, 137.583783)"><g><path d="M 3.828125 0 L 1.1875 0 L 1.1875 -10.96875 L 3.828125 -10.96875 L 3.828125 -9.578125 C 4.253906 -10.179688 4.71875 -10.601562 5.21875 -10.84375 C 5.726562 -11.082031 6.265625 -11.203125 6.828125 -11.203125 C 7.535156 -11.203125 8.144531 -11.054688 8.65625 -10.765625 C 9.175781 -10.472656 9.519531 -10.03125 9.6875 -9.4375 C 10.0625 -10.050781 10.515625 -10.5 11.046875 -10.78125 C 11.578125 -11.0625 12.203125 -11.203125 12.921875 -11.203125 C 14.160156 -11.203125 15.066406 -10.835938 15.640625 -10.109375 C 16.222656 -9.390625 16.515625 -8.414062 16.515625 -7.1875 L 16.515625 0 L 13.875 0 L 13.875 -6.859375 C 13.875 -7.617188 13.726562 -8.171875 13.4375 -8.515625 C 13.144531 -8.859375 12.71875 -9.03125 12.15625 -9.03125 C 11.875 -9.03125 11.617188 -8.976562 11.390625 -8.875 C 11.171875 -8.78125 10.988281 -8.65625 10.84375 -8.5 C 10.601562 -8.21875 10.429688 -7.859375 10.328125 -7.421875 C 10.234375 -6.984375 10.1875 -6.445312 10.1875 -5.8125 L 10.1875 0 L 7.546875 0 L 7.546875 -6.859375 C 7.546875 -7.597656 7.390625 -8.144531 7.078125 -8.5 C 6.773438 -8.851562 6.351562 -9.03125 5.8125 -9.03125 C 5.257812 -9.03125 4.8125 -8.84375 4.46875 -8.46875 C 4.257812 -8.21875 4.097656 -7.882812 3.984375 -7.46875 C 3.878906 -7.0625 3.828125 -6.507812 3.828125 -5.8125 Z M 3.828125 0 "/></g></g></g><g fill="#000000" fill-opacity="1"><g transform="translate(92.844031, 63.870145)"><g><path d="M 10.453125 0 L 1.328125 0 L 1.328125 -14.921875 L 4.140625 -14.921875 L 4.140625 -2.515625 L 10.453125 -2.515625 Z M 10.453125 0 "/></g></g></g><g fill="#000000" fill-opacity="1"><g transform="translate(105.471569, 63.870145)"><g><path d="M 4.359375 0.21875 C 3.328125 0.21875 2.46875 -0.0546875 1.78125 -0.609375 C 1.101562 -1.171875 0.765625 -1.972656 0.765625 -3.015625 C 0.765625 -3.597656 0.878906 -4.09375 1.109375 -4.5 C 1.335938 -4.914062 1.640625 -5.253906 2.015625 -5.515625 C 2.367188 -5.765625 2.769531 -5.957031 3.21875 -6.09375 C 3.664062 -6.238281 4.117188 -6.359375 4.578125 -6.453125 L 7.84375 -7.0625 C 7.8125 -7.738281 7.632812 -8.25 7.3125 -8.59375 C 6.988281 -8.945312 6.5 -9.125 5.84375 -9.125 C 5.351562 -9.125 4.914062 -8.976562 4.53125 -8.6875 C 4.144531 -8.394531 3.898438 -7.988281 3.796875 -7.46875 L 1.171875 -7.46875 C 1.304688 -8.320312 1.609375 -9.023438 2.078125 -9.578125 C 2.546875 -10.128906 3.113281 -10.535156 3.78125 -10.796875 C 4.445312 -11.066406 5.140625 -11.203125 5.859375 -11.203125 C 6.503906 -11.203125 7.117188 -11.109375 7.703125 -10.921875 C 8.285156 -10.742188 8.78125 -10.46875 9.1875 -10.09375 C 9.613281 -9.707031 9.914062 -9.269531 10.09375 -8.78125 C 10.28125 -8.289062 10.390625 -7.78125 10.421875 -7.25 C 10.460938 -6.726562 10.484375 -6.210938 10.484375 -5.703125 L 10.484375 0 L 7.84375 0 L 7.84375 -1.484375 C 7.5625 -1.003906 7.226562 -0.640625 6.84375 -0.390625 C 6.5 -0.171875 6.113281 -0.015625 5.6875 0.078125 C 5.269531 0.171875 4.828125 0.21875 4.359375 0.21875 Z M 5 -1.859375 C 5.519531 -1.859375 5.988281 -1.960938 6.40625 -2.171875 C 6.976562 -2.453125 7.363281 -2.832031 7.5625 -3.3125 C 7.769531 -3.800781 7.878906 -4.40625 7.890625 -5.125 L 5.28125 -4.59375 C 4.894531 -4.53125 4.582031 -4.445312 4.34375 -4.34375 C 4.101562 -4.238281 3.90625 -4.113281 3.75 -3.96875 C 3.644531 -3.863281 3.5625 -3.738281 3.5 -3.59375 C 3.4375 -3.445312 3.40625 -3.285156 3.40625 -3.109375 C 3.40625 -2.703125 3.554688 -2.390625 3.859375 -2.171875 C 4.160156 -1.960938 4.539062 -1.859375 5 -1.859375 Z M 5 -1.859375 "/></g></g></g><g fill="#000000" fill-opacity="1"><g transform="translate(118.978694, 63.870145)"><g><path d="M 6.953125 -11.1875 C 7.921875 -11.1875 8.765625 -10.941406 9.484375 -10.453125 C 10.210938 -9.972656 10.773438 -9.300781 11.171875 -8.4375 C 11.578125 -7.582031 11.78125 -6.59375 11.78125 -5.46875 C 11.78125 -4.351562 11.578125 -3.363281 11.171875 -2.5 C 10.773438 -1.644531 10.210938 -0.972656 9.484375 -0.484375 C 8.765625 -0.00390625 7.921875 0.234375 6.953125 0.234375 C 6.316406 0.234375 5.75 0.117188 5.25 -0.109375 C 4.757812 -0.335938 4.289062 -0.765625 3.84375 -1.390625 L 3.84375 3.953125 L 1.21875 3.953125 L 1.21875 -10.96875 L 3.84375 -10.96875 L 3.84375 -9.578125 C 4.289062 -10.191406 4.757812 -10.613281 5.25 -10.84375 C 5.75 -11.070312 6.316406 -11.1875 6.953125 -11.1875 Z M 6.359375 -8.90625 C 5.523438 -8.90625 4.84375 -8.585938 4.3125 -7.953125 C 3.78125 -7.316406 3.515625 -6.488281 3.515625 -5.46875 C 3.515625 -4.457031 3.78125 -3.628906 4.3125 -2.984375 C 4.84375 -2.347656 5.523438 -2.03125 6.359375 -2.03125 C 7.203125 -2.03125 7.875 -2.351562 8.375 -3 C 8.875 -3.65625 9.125 -4.476562 9.125 -5.46875 C 9.125 -6.476562 8.875 -7.300781 8.375 -7.9375 C 7.875 -8.582031 7.203125 -8.90625 6.359375 -8.90625 Z M 6.359375 -8.90625 "/></g></g></g><g fill="#000000" fill-opacity="1"><g transform="translate(133.502229, 63.870145)"><g><path d="M 6.359375 0.21875 C 5.253906 0.21875 4.28125 -0.0195312 3.4375 -0.5 C 2.59375 -0.988281 1.929688 -1.664062 1.453125 -2.53125 C 0.984375 -3.394531 0.75 -4.398438 0.75 -5.546875 C 0.75 -6.660156 0.984375 -7.640625 1.453125 -8.484375 C 1.929688 -9.328125 2.585938 -9.988281 3.421875 -10.46875 C 4.265625 -10.957031 5.242188 -11.203125 6.359375 -11.203125 C 7.460938 -11.203125 8.4375 -10.957031 9.28125 -10.46875 C 10.132812 -9.988281 10.796875 -9.328125 11.265625 -8.484375 C 11.742188 -7.640625 11.984375 -6.660156 11.984375 -5.546875 C 11.984375 -4.410156 11.75 -3.410156 11.28125 -2.546875 C 10.8125 -1.679688 10.148438 -1.003906 9.296875 -0.515625 C 8.453125 -0.0234375 7.472656 0.21875 6.359375 0.21875 Z M 6.359375 -2.046875 C 7.210938 -2.046875 7.90625 -2.367188 8.4375 -3.015625 C 8.976562 -3.671875 9.25 -4.515625 9.25 -5.546875 C 9.25 -6.203125 9.125 -6.78125 8.875 -7.28125 C 8.632812 -7.789062 8.300781 -8.191406 7.875 -8.484375 C 7.445312 -8.785156 6.941406 -8.9375 6.359375 -8.9375 C 5.796875 -8.9375 5.289062 -8.789062 4.84375 -8.5 C 4.40625 -8.21875 4.0625 -7.820312 3.8125 -7.3125 C 3.5625 -6.800781 3.4375 -6.210938 3.4375 -5.546875 C 3.4375 -4.503906 3.707031 -3.660156 4.25 -3.015625 C 4.800781 -2.367188 5.503906 -2.046875 6.359375 -2.046875 Z M 6.359375 -2.046875 "/></g></g></g><g fill="#000000" fill-opacity="1"><g transform="translate(148.201681, 63.870145)"><g><path d="M 3.828125 0 L 1.1875 0 L 1.1875 -10.96875 L 3.828125 -10.96875 L 3.828125 -9.65625 C 4.242188 -10.226562 4.707031 -10.628906 5.21875 -10.859375 C 5.738281 -11.085938 6.316406 -11.203125 6.953125 -11.203125 L 7.265625 -11.203125 L 7.265625 -8.65625 L 6.671875 -8.65625 C 6.222656 -8.65625 5.835938 -8.597656 5.515625 -8.484375 C 5.203125 -8.367188 4.929688 -8.207031 4.703125 -8 C 4.421875 -7.707031 4.203125 -7.328125 4.046875 -6.859375 C 3.898438 -6.398438 3.828125 -5.804688 3.828125 -5.078125 Z M 3.828125 0 "/></g></g></g><g fill="#000000" fill-opacity="1"><g transform="translate(157.799529, 63.870145)"><g><path d="M 4.359375 0.21875 C 3.328125 0.21875 2.46875 -0.0546875 1.78125 -0.609375 C 1.101562 -1.171875 0.765625 -1.972656 0.765625 -3.015625 C 0.765625 -3.597656 0.878906 -4.09375 1.109375 -4.5 C 1.335938 -4.914062 1.640625 -5.253906 2.015625 -5.515625 C 2.367188 -5.765625 2.769531 -5.957031 3.21875 -6.09375 C 3.664062 -6.238281 4.117188 -6.359375 4.578125 -6.453125 L 7.84375 -7.0625 C 7.8125 -7.738281 7.632812 -8.25 7.3125 -8.59375 C 6.988281 -8.945312 6.5 -9.125 5.84375 -9.125 C 5.351562 -9.125 4.914062 -8.976562 4.53125 -8.6875 C 4.144531 -8.394531 3.898438 -7.988281 3.796875 -7.46875 L 1.171875 -7.46875 C 1.304688 -8.320312 1.609375 -9.023438 2.078125 -9.578125 C 2.546875 -10.128906 3.113281 -10.535156 3.78125 -10.796875 C 4.445312 -11.066406 5.140625 -11.203125 5.859375 -11.203125 C 6.503906 -11.203125 7.117188 -11.109375 7.703125 -10.921875 C 8.285156 -10.742188 8.78125 -10.46875 9.1875 -10.09375 C 9.613281 -9.707031 9.914062 -9.269531 10.09375 -8.78125 C 10.28125 -8.289062 10.390625 -7.78125 10.421875 -7.25 C 10.460938 -6.726562 10.484375 -6.210938 10.484375 -5.703125 L 10.484375 0 L 7.84375 0 L 7.84375 -1.484375 C 7.5625 -1.003906 7.226562 -0.640625 6.84375 -0.390625 C 6.5 -0.171875 6.113281 -0.015625 5.6875 0.078125 C 5.269531 0.171875 4.828125 0.21875 4.359375 0.21875 Z M 5 -1.859375 C 5.519531 -1.859375 5.988281 -1.960938 6.40625 -2.171875 C 6.976562 -2.453125 7.363281 -2.832031 7.5625 -3.3125 C 7.769531 -3.800781 7.878906 -4.40625 7.890625 -5.125 L 5.28125 -4.59375 C 4.894531 -4.53125 4.582031 -4.445312 4.34375 -4.34375 C 4.101562 -4.238281 3.90625 -4.113281 3.75 -3.96875 C 3.644531 -3.863281 3.5625 -3.738281 3.5 -3.59375 C 3.4375 -3.445312 3.40625 -3.285156 3.40625 -3.109375 C 3.40625 -2.703125 3.554688 -2.390625 3.859375 -2.171875 C 4.160156 -1.960938 4.539062 -1.859375 5 -1.859375 Z M 5 -1.859375 "/></g></g></g><g fill="#000000" fill-opacity="1"><g transform="translate(171.306655, 63.870145)"><g><path d="M 3.828125 0 L 1.1875 0 L 1.1875 -10.96875 L 3.828125 -10.96875 L 3.828125 -9.578125 C 4.273438 -10.191406 4.738281 -10.613281 5.21875 -10.84375 C 5.695312 -11.082031 6.234375 -11.203125 6.828125 -11.203125 C 7.828125 -11.203125 8.582031 -11.019531 9.09375 -10.65625 C 9.613281 -10.300781 10 -9.867188 10.25 -9.359375 C 10.46875 -8.878906 10.59375 -8.390625 10.625 -7.890625 C 10.664062 -7.390625 10.6875 -6.863281 10.6875 -6.3125 L 10.6875 0 L 8.078125 0 L 8.078125 -6.359375 C 8.078125 -6.910156 8.03125 -7.359375 7.9375 -7.703125 C 7.84375 -8.054688 7.707031 -8.335938 7.53125 -8.546875 C 7.21875 -8.867188 6.753906 -9.03125 6.140625 -9.03125 C 5.398438 -9.03125 4.84375 -8.804688 4.46875 -8.359375 C 4.25 -8.097656 4.085938 -7.753906 3.984375 -7.328125 C 3.878906 -6.898438 3.828125 -6.320312 3.828125 -5.59375 Z M 3.828125 0 "/></g></g></g><g fill="#000000" fill-opacity="1"><g transform="translate(185.08743, 63.870145)"><g/></g></g><g fill="#000000" fill-opacity="1"><g transform="translate(192.28107, 63.870145)"><g><path d="M 7.5625 0 L 4.75 0 L 4.75 -12.390625 L 0.203125 -12.390625 L 0.203125 -14.921875 L 12.09375 -14.921875 L 12.09375 -12.390625 L 7.5625 -12.390625 Z M 7.5625 0 "/></g></g></g><g fill="#000000" fill-opacity="1"><g transform="translate(206.550499, 63.870145)"><g><path d="M 6.328125 0.21875 C 5.210938 0.21875 4.234375 -0.0234375 3.390625 -0.515625 C 2.546875 -1.003906 1.894531 -1.671875 1.4375 -2.515625 C 0.976562 -3.367188 0.75 -4.335938 0.75 -5.421875 C 0.75 -6.128906 0.859375 -6.828125 1.078125 -7.515625 C 1.296875 -8.210938 1.632812 -8.835938 2.09375 -9.390625 C 2.550781 -9.941406 3.125 -10.378906 3.8125 -10.703125 C 4.5 -11.035156 5.3125 -11.203125 6.25 -11.203125 C 6.957031 -11.203125 7.640625 -11.085938 8.296875 -10.859375 C 8.953125 -10.640625 9.539062 -10.296875 10.0625 -9.828125 C 10.582031 -9.367188 10.992188 -8.78125 11.296875 -8.0625 C 11.609375 -7.351562 11.765625 -6.503906 11.765625 -5.515625 L 11.765625 -4.953125 L 3.484375 -4.953125 C 3.503906 -4.710938 3.550781 -4.476562 3.625 -4.25 C 3.707031 -4.019531 3.796875 -3.820312 3.890625 -3.65625 C 4.148438 -3.144531 4.5 -2.75 4.9375 -2.46875 C 5.375 -2.1875 5.875 -2.046875 6.4375 -2.046875 C 7.0625 -2.046875 7.582031 -2.207031 8 -2.53125 C 8.425781 -2.863281 8.722656 -3.25 8.890625 -3.6875 L 11.59375 -3.6875 C 11.382812 -2.988281 11.050781 -2.34375 10.59375 -1.75 C 10.132812 -1.15625 9.550781 -0.675781 8.84375 -0.3125 C 8.144531 0.0390625 7.304688 0.21875 6.328125 0.21875 Z M 3.59375 -6.921875 L 9.0625 -6.921875 C 9.050781 -7.066406 9.015625 -7.226562 8.953125 -7.40625 C 8.898438 -7.59375 8.800781 -7.769531 8.65625 -7.9375 C 8.40625 -8.320312 8.078125 -8.613281 7.671875 -8.8125 C 7.265625 -9.007812 6.816406 -9.109375 6.328125 -9.109375 C 5.847656 -9.109375 5.410156 -9.007812 5.015625 -8.8125 C 4.617188 -8.613281 4.289062 -8.320312 4.03125 -7.9375 C 3.882812 -7.769531 3.78125 -7.59375 3.71875 -7.40625 C 3.664062 -7.226562 3.625 -7.066406 3.59375 -6.921875 Z M 3.59375 -6.921875 "/></g></g></g><g fill="#000000" fill-opacity="1"><g transform="translate(221.015393, 63.870145)"><g><path d="M 3.828125 0 L 1.1875 0 L 1.1875 -10.96875 L 3.828125 -10.96875 L 3.828125 -9.65625 C 4.242188 -10.226562 4.707031 -10.628906 5.21875 -10.859375 C 5.738281 -11.085938 6.316406 -11.203125 6.953125 -11.203125 L 7.265625 -11.203125 L 7.265625 -8.65625 L 6.671875 -8.65625 C 6.222656 -8.65625 5.835938 -8.597656 5.515625 -8.484375 C 5.203125 -8.367188 4.929688 -8.207031 4.703125 -8 C 4.421875 -7.707031 4.203125 -7.328125 4.046875 -6.859375 C 3.898438 -6.398438 3.828125 -5.804688 3.828125 -5.078125 Z M 3.828125 0 "/></g></g></g><g fill="#000000" fill-opacity="1"><g transform="translate(230.613242, 63.870145)"><g><path d="M 2.515625 -12.171875 C 2.078125 -12.171875 1.695312 -12.304688 1.375 -12.578125 C 1.0625 -12.859375 0.90625 -13.226562 0.90625 -13.6875 C 0.90625 -14.125 1.0625 -14.484375 1.375 -14.765625 C 1.695312 -15.046875 2.078125 -15.1875 2.515625 -15.1875 C 2.960938 -15.1875 3.34375 -15.046875 3.65625 -14.765625 C 3.976562 -14.484375 4.140625 -14.125 4.140625 -13.6875 C 4.140625 -13.226562 3.976562 -12.859375 3.65625 -12.578125 C 3.34375 -12.304688 2.960938 -12.171875 2.515625 -12.171875 Z M 3.828125 0 L 1.1875 0 L 1.1875 -10.96875 L 3.828125 -10.96875 Z M 3.828125 0 "/></g></g></g><g fill="#000000" fill-opacity="1"><g transform="translate(237.611421, 63.870145)"><g><path d="M 3.828125 0 L 1.1875 0 L 1.1875 -10.96875 L 3.828125 -10.96875 L 3.828125 -9.578125 C 4.273438 -10.191406 4.738281 -10.613281 5.21875 -10.84375 C 5.695312 -11.082031 6.234375 -11.203125 6.828125 -11.203125 C 7.828125 -11.203125 8.582031 -11.019531 9.09375 -10.65625 C 9.613281 -10.300781 10 -9.867188 10.25 -9.359375 C 10.46875 -8.878906 10.59375 -8.390625 10.625 -7.890625 C 10.664062 -7.390625 10.6875 -6.863281 10.6875 -6.3125 L 10.6875 0 L 8.078125 0 L 8.078125 -6.359375 C 8.078125 -6.910156 8.03125 -7.359375 7.9375 -7.703125 C 7.84375 -8.054688 7.707031 -8.335938 7.53125 -8.546875 C 7.21875 -8.867188 6.753906 -9.03125 6.140625 -9.03125 C 5.398438 -9.03125 4.84375 -8.804688 4.46875 -8.359375 C 4.25 -8.097656 4.085938 -7.753906 3.984375 -7.328125 C 3.878906 -6.898438 3.828125 -6.320312 3.828125 -5.59375 Z M 3.828125 0 "/></g></g></g><g fill="#000000" fill-opacity="1"><g transform="translate(251.392196, 63.870145)"><g><path d="M 6.796875 0 L 4.625 0 C 3.820312 0 3.195312 -0.1875 2.75 -0.5625 C 2.300781 -0.945312 2.078125 -1.5625 2.078125 -2.40625 L 2.078125 -8.859375 L 0.453125 -8.859375 L 0.453125 -10.96875 L 2.078125 -10.96875 L 2.078125 -14.921875 L 4.703125 -14.921875 L 4.703125 -10.96875 L 6.828125 -10.96875 L 6.828125 -8.859375 L 4.703125 -8.859375 L 4.703125 -3.203125 C 4.703125 -2.921875 4.75 -2.679688 4.84375 -2.484375 C 4.945312 -2.285156 5.203125 -2.1875 5.609375 -2.1875 L 6.796875 -2.1875 Z M 6.796875 0 "/></g></g></g><g fill="#000000" fill-opacity="1"><g transform="translate(260.833669, 63.870145)"><g><path d="M 6.328125 0.21875 C 5.210938 0.21875 4.234375 -0.0234375 3.390625 -0.515625 C 2.546875 -1.003906 1.894531 -1.671875 1.4375 -2.515625 C 0.976562 -3.367188 0.75 -4.335938 0.75 -5.421875 C 0.75 -6.128906 0.859375 -6.828125 1.078125 -7.515625 C 1.296875 -8.210938 1.632812 -8.835938 2.09375 -9.390625 C 2.550781 -9.941406 3.125 -10.378906 3.8125 -10.703125 C 4.5 -11.035156 5.3125 -11.203125 6.25 -11.203125 C 6.957031 -11.203125 7.640625 -11.085938 8.296875 -10.859375 C 8.953125 -10.640625 9.539062 -10.296875 10.0625 -9.828125 C 10.582031 -9.367188 10.992188 -8.78125 11.296875 -8.0625 C 11.609375 -7.351562 11.765625 -6.503906 11.765625 -5.515625 L 11.765625 -4.953125 L 3.484375 -4.953125 C 3.503906 -4.710938 3.550781 -4.476562 3.625 -4.25 C 3.707031 -4.019531 3.796875 -3.820312 3.890625 -3.65625 C 4.148438 -3.144531 4.5 -2.75 4.9375 -2.46875 C 5.375 -2.1875 5.875 -2.046875 6.4375 -2.046875 C 7.0625 -2.046875 7.582031 -2.207031 8 -2.53125 C 8.425781 -2.863281 8.722656 -3.25 8.890625 -3.6875 L 11.59375 -3.6875 C 11.382812 -2.988281 11.050781 -2.34375 10.59375 -1.75 C 10.132812 -1.15625 9.550781 -0.675781 8.84375 -0.3125 C 8.144531 0.0390625 7.304688 0.21875 6.328125 0.21875 Z M 3.59375 -6.921875 L 9.0625 -6.921875 C 9.050781 -7.066406 9.015625 -7.226562 8.953125 -7.40625 C 8.898438 -7.59375 8.800781 -7.769531 8.65625 -7.9375 C 8.40625 -8.320312 8.078125 -8.613281 7.671875 -8.8125 C 7.265625 -9.007812 6.816406 -9.109375 6.328125 -9.109375 C 5.847656 -9.109375 5.410156 -9.007812 5.015625 -8.8125 C 4.617188 -8.613281 4.289062 -8.320312 4.03125 -7.9375 C 3.882812 -7.769531 3.78125 -7.59375 3.71875 -7.40625 C 3.664062 -7.226562 3.625 -7.066406 3.59375 -6.921875 Z M 3.59375 -6.921875 "/></g></g></g><g fill="#000000" fill-opacity="1"><g transform="translate(275.298563, 63.870145)"><g><path d="M 6.234375 4.15625 C 5.492188 4.15625 4.757812 4.054688 4.03125 3.859375 C 3.3125 3.660156 2.691406 3.300781 2.171875 2.78125 C 1.648438 2.257812 1.3125 1.53125 1.15625 0.59375 L 3.8125 0.59375 C 3.976562 1.125 4.257812 1.507812 4.65625 1.75 C 5.0625 1.988281 5.582031 2.109375 6.21875 2.109375 C 7.113281 2.109375 7.757812 1.898438 8.15625 1.484375 C 8.550781 1.078125 8.75 0.554688 8.75 -0.078125 L 8.75 -1.625 C 8.3125 -1 7.84375 -0.570312 7.34375 -0.34375 C 6.851562 -0.125 6.28125 -0.015625 5.625 -0.015625 C 4.675781 -0.015625 3.835938 -0.253906 3.109375 -0.734375 C 2.390625 -1.222656 1.828125 -1.882812 1.421875 -2.71875 C 1.023438 -3.550781 0.828125 -4.503906 0.828125 -5.578125 C 0.828125 -6.671875 1.023438 -7.640625 1.421875 -8.484375 C 1.828125 -9.328125 2.390625 -9.988281 3.109375 -10.46875 C 3.835938 -10.957031 4.675781 -11.203125 5.625 -11.203125 C 6.28125 -11.203125 6.851562 -11.082031 7.34375 -10.84375 C 7.84375 -10.613281 8.3125 -10.191406 8.75 -9.578125 L 8.75 -10.96875 L 11.390625 -10.96875 L 11.390625 -0.703125 C 11.390625 0.546875 11.160156 1.523438 10.703125 2.234375 C 10.253906 2.941406 9.640625 3.4375 8.859375 3.71875 C 8.078125 4.007812 7.203125 4.15625 6.234375 4.15625 Z M 6.25 -2.28125 C 6.8125 -2.28125 7.300781 -2.421875 7.71875 -2.703125 C 8.144531 -2.992188 8.476562 -3.390625 8.71875 -3.890625 C 8.96875 -4.398438 9.09375 -4.972656 9.09375 -5.609375 C 9.09375 -6.242188 8.96875 -6.8125 8.71875 -7.3125 C 8.476562 -7.820312 8.144531 -8.21875 7.71875 -8.5 C 7.300781 -8.789062 6.8125 -8.9375 6.25 -8.9375 C 5.695312 -8.9375 5.207031 -8.785156 4.78125 -8.484375 C 4.363281 -8.191406 4.039062 -7.796875 3.8125 -7.296875 C 3.59375 -6.796875 3.484375 -6.234375 3.484375 -5.609375 C 3.484375 -4.984375 3.59375 -4.421875 3.8125 -3.921875 C 4.039062 -3.421875 4.363281 -3.019531 4.78125 -2.71875 C 5.207031 -2.425781 5.695312 -2.28125 6.25 -2.28125 Z M 6.25 -2.28125 "/></g></g></g><g fill="#000000" fill-opacity="1"><g transform="translate(289.841629, 63.870145)"><g><path d="M 3.828125 0 L 1.1875 0 L 1.1875 -10.96875 L 3.828125 -10.96875 L 3.828125 -9.65625 C 4.242188 -10.226562 4.707031 -10.628906 5.21875 -10.859375 C 5.738281 -11.085938 6.316406 -11.203125 6.953125 -11.203125 L 7.265625 -11.203125 L 7.265625 -8.65625 L 6.671875 -8.65625 C 6.222656 -8.65625 5.835938 -8.597656 5.515625 -8.484375 C 5.203125 -8.367188 4.929688 -8.207031 4.703125 -8 C 4.421875 -7.707031 4.203125 -7.328125 4.046875 -6.859375 C 3.898438 -6.398438 3.828125 -5.804688 3.828125 -5.078125 Z M 3.828125 0 "/></g></g></g><g fill="#000000" fill-opacity="1"><g transform="translate(299.439477, 63.870145)"><g><path d="M 4.359375 0.21875 C 3.328125 0.21875 2.46875 -0.0546875 1.78125 -0.609375 C 1.101562 -1.171875 0.765625 -1.972656 0.765625 -3.015625 C 0.765625 -3.597656 0.878906 -4.09375 1.109375 -4.5 C 1.335938 -4.914062 1.640625 -5.253906 2.015625 -5.515625 C 2.367188 -5.765625 2.769531 -5.957031 3.21875 -6.09375 C 3.664062 -6.238281 4.117188 -6.359375 4.578125 -6.453125 L 7.84375 -7.0625 C 7.8125 -7.738281 7.632812 -8.25 7.3125 -8.59375 C 6.988281 -8.945312 6.5 -9.125 5.84375 -9.125 C 5.351562 -9.125 4.914062 -8.976562 4.53125 -8.6875 C 4.144531 -8.394531 3.898438 -7.988281 3.796875 -7.46875 L 1.171875 -7.46875 C 1.304688 -8.320312 1.609375 -9.023438 2.078125 -9.578125 C 2.546875 -10.128906 3.113281 -10.535156 3.78125 -10.796875 C 4.445312 -11.066406 5.140625 -11.203125 5.859375 -11.203125 C 6.503906 -11.203125 7.117188 -11.109375 7.703125 -10.921875 C 8.285156 -10.742188 8.78125 -10.46875 9.1875 -10.09375 C 9.613281 -9.707031 9.914062 -9.269531 10.09375 -8.78125 C 10.28125 -8.289062 10.390625 -7.78125 10.421875 -7.25 C 10.460938 -6.726562 10.484375 -6.210938 10.484375 -5.703125 L 10.484375 0 L 7.84375 0 L 7.84375 -1.484375 C 7.5625 -1.003906 7.226562 -0.640625 6.84375 -0.390625 C 6.5 -0.171875 6.113281 -0.015625 5.6875 0.078125 C 5.269531 0.171875 4.828125 0.21875 4.359375 0.21875 Z M 5 -1.859375 C 5.519531 -1.859375 5.988281 -1.960938 6.40625 -2.171875 C 6.976562 -2.453125 7.363281 -2.832031 7.5625 -3.3125 C 7.769531 -3.800781 7.878906 -4.40625 7.890625 -5.125 L 5.28125 -4.59375 C 4.894531 -4.53125 4.582031 -4.445312 4.34375 -4.34375 C 4.101562 -4.238281 3.90625 -4.113281 3.75 -3.96875 C 3.644531 -3.863281 3.5625 -3.738281 3.5 -3.59375 C 3.4375 -3.445312 3.40625 -3.285156 3.40625 -3.109375 C 3.40625 -2.703125 3.554688 -2.390625 3.859375 -2.171875 C 4.160156 -1.960938 4.539062 -1.859375 5 -1.859375 Z M 5 -1.859375 "/></g></g></g><g fill="#000000" fill-opacity="1"><g transform="translate(312.946603, 63.870145)"><g><path d="M 5.9375 0.21875 C 5.101562 0.21875 4.304688 0.0820312 3.546875 -0.1875 C 2.796875 -0.457031 2.160156 -0.878906 1.640625 -1.453125 C 1.128906 -2.035156 0.8125 -2.78125 0.6875 -3.6875 L 3.28125 -3.6875 C 3.445312 -3.09375 3.757812 -2.640625 4.21875 -2.328125 C 4.675781 -2.015625 5.242188 -1.859375 5.921875 -1.859375 C 6.484375 -1.859375 6.945312 -1.96875 7.3125 -2.1875 C 7.675781 -2.40625 7.859375 -2.71875 7.859375 -3.125 C 7.859375 -3.445312 7.738281 -3.703125 7.5 -3.890625 C 7.257812 -4.085938 6.941406 -4.238281 6.546875 -4.34375 C 6.160156 -4.445312 5.734375 -4.539062 5.265625 -4.625 C 4.785156 -4.71875 4.300781 -4.828125 3.8125 -4.953125 C 3.332031 -5.085938 2.890625 -5.269531 2.484375 -5.5 C 2.078125 -5.726562 1.75 -6.035156 1.5 -6.421875 C 1.257812 -6.804688 1.140625 -7.304688 1.140625 -7.921875 C 1.140625 -8.679688 1.332031 -9.300781 1.71875 -9.78125 C 2.113281 -10.269531 2.628906 -10.628906 3.265625 -10.859375 C 3.910156 -11.085938 4.613281 -11.203125 5.375 -11.203125 C 6.65625 -11.203125 7.722656 -10.878906 8.578125 -10.234375 C 9.441406 -9.585938 9.972656 -8.664062 10.171875 -7.46875 L 7.6875 -7.46875 C 7.53125 -8.0625 7.234375 -8.484375 6.796875 -8.734375 C 6.367188 -8.992188 5.890625 -9.125 5.359375 -9.125 C 4.835938 -9.125 4.421875 -9.019531 4.109375 -8.8125 C 3.804688 -8.613281 3.65625 -8.347656 3.65625 -8.015625 C 3.65625 -7.710938 3.769531 -7.476562 4 -7.3125 C 4.238281 -7.144531 4.550781 -7.015625 4.9375 -6.921875 C 5.320312 -6.828125 5.734375 -6.734375 6.171875 -6.640625 C 6.660156 -6.554688 7.15625 -6.453125 7.65625 -6.328125 C 8.15625 -6.203125 8.613281 -6.023438 9.03125 -5.796875 C 9.457031 -5.566406 9.800781 -5.253906 10.0625 -4.859375 C 10.320312 -4.460938 10.453125 -3.953125 10.453125 -3.328125 C 10.453125 -2.253906 10.054688 -1.394531 9.265625 -0.75 C 8.472656 -0.101562 7.363281 0.21875 5.9375 0.21875 Z M 5.9375 0.21875 "/></g></g></g><g fill="#000000" fill-opacity="1"><g transform="translate(326.160519, 63.870145)"><g><path d="M 2.515625 -12.171875 C 2.078125 -12.171875 1.695312 -12.304688 1.375 -12.578125 C 1.0625 -12.859375 0.90625 -13.226562 0.90625 -13.6875 C 0.90625 -14.125 1.0625 -14.484375 1.375 -14.765625 C 1.695312 -15.046875 2.078125 -15.1875 2.515625 -15.1875 C 2.960938 -15.1875 3.34375 -15.046875 3.65625 -14.765625 C 3.976562 -14.484375 4.140625 -14.125 4.140625 -13.6875 C 4.140625 -13.226562 3.976562 -12.859375 3.65625 -12.578125 C 3.34375 -12.304688 2.960938 -12.171875 2.515625 -12.171875 Z M 3.828125 0 L 1.1875 0 L 1.1875 -10.96875 L 3.828125 -10.96875 Z M 3.828125 0 "/></g></g></g></svg>